<svg width="528" height="216" fill="none" xmlns="http://www.w3.org/2000/svg"><g clip-path="url(#clip0)"><path d="M15.561 140.954c-.864 1.237-2.223 1.979-3.582 2.721a3.687 3.687 0 00-1.976 2.102c-.989 2.721-2.718 9.646-2.718 9.646l2.223-.371s-4.076 6.555-3.088 7.173c.989.618 2.1-1.237 2.1-1.237s.247 1.361.989 1.237c.864-.124.988-1.484.988-1.484s.494 1.36 1.358 1.36c.865 0 1.36-6.678 1.36-6.678s1.976-.247 3.087-2.102c1.112-1.855 2.1-8.409 2.1-8.409s1.853-.371 2.224-2.226l1.853-.99-2.1-.618s.247-.618-.124-.742c-.617-.371-1.358-.618-1.853-.742-.864-.124-2.1.371-2.84 1.36z" fill="#203A48"/><path d="M7.31 155.235s5.929-.618 6.917-7.296" stroke="#C5D1D3" stroke-miterlimit="10"/><path d="M18.798 140.441l2.717-.866-1.359 2.35-1.358-1.484z" fill="#203A48"/><path d="M1.043 109.047s.836-4.182 3.133-6.064c0 0 2.611 3.659 2.611 6.482l3.342-1.568s2.297 2.3 1.88 5.436c0 0 2.088-2.3 4.177-2.927 0 0 2.297 2.091 2.297 5.227 0 0 2.924-4.705 5.013-5.227 0 0 2.924 3.973 2.924 6.273 0 0 3.133-1.255 6.057-1.255 0 0 1.567 6.064-1.253 8.887 0 0 2.61-1.255 5.221-.523 0 0 .523 2.614-2.088 5.018 0 0 2.297-.209 4.177 1.569 0 0-.522 3.136-3.968 5.018 0 0 3.341-1.568 6.265-.209 0 0 1.254 4.182-1.253 5.75" stroke="#C5D1D3" stroke-miterlimit="10" stroke-linejoin="round"/><path d="M26.943 155.78s-1.88-2.718 0-4.914c0 0 2.089-.522 3.133.837 0 0 0-3.032 1.253-4.391 0 0 2.923-2.089 4.385-.521 0 0 .523-4.393 1.88-5.543 0 0 4.699-.837 6.056 1.045 0 0 0-4.913 2.298-6.273 0 0 3.133.837 3.968 3.032 0 0 2.089-5.75 3.969-6.795 0 0 2.924 1.463 3.446 5.123" stroke="#C5D1D3" stroke-miterlimit="10" stroke-linejoin="round"/><path fill-rule="evenodd" clip-rule="evenodd" d="M65.74 157.044l-64.697-.001V156h65.74v59.479h-1.044v-58.435z" fill="#C5D1D3"/><path fill-rule="evenodd" clip-rule="evenodd" d="M66.04 200.583l-44.127-43.911.743-.738 44.127 43.911-.743.738z" fill="#C5D1D3"/><path fill-rule="evenodd" clip-rule="evenodd" d="M21.913 200.87L66.04 156l.743.741-43.305 44.129h-1.565z" fill="#C5D1D3"/><path fill-rule="evenodd" clip-rule="evenodd" d="M21.913 200.87l-20.87-22.957H2.61l20.87 22.957h-1.566zm-20.87-22.957l21.832-21.976.753.731-21.02 21.245H1.044zm66.783 24H1.043v-1.043h66.783v1.043z" fill="#C5D1D3"/><path d="M330 214.851l.261-169.981h191.478" stroke="#C5D1D3" stroke-miterlimit="10"/><path d="M370.957 215.478V84.522h150.782M371.478 92.87h150.258m-150.258 8.348h150.258m-150.258 8.347h150.258m.003-64.695H321.913v-8.348h199.826" stroke="#C5D1D3" stroke-miterlimit="10"/><path fill-rule="evenodd" clip-rule="evenodd" d="M0 33.913h131.478v41.74H43.652V74.61h86.783l-.001-39.656H0v-1.042zm18.783 40.696H0v-1.044h17.74l1.043 1.044z" fill="#C5D1D3"/><path fill-rule="evenodd" clip-rule="evenodd" d="M117.913 55.826H58.435v-1.043h59.478v1.043z" fill="#C5D1D3"/><path d="M107.478 62.087l10.435-6.728-10.435-6.837m-60.38 33.237c.522.732-3.55 1.045-3.55 1.045l-4.804-5.123v6.483L22.66 88.868l-5.95-20.596 24.332-7.11c.105 0 1.149 14.115 6.057 20.597zm-11.905 3.45l-1.775-6.273m-2.298 7.318l-1.88-6.273m-2.421 7.161l-1.776-6.273M521.739 27.13H370.957V0h150.782" stroke="#C5D1D3" stroke-miterlimit="10"/><path d="M290.411 115.424s-.627-4.809 1.357-7.318c0 0 3.655.418 4.909 2.927 0 0 .417-4.496 2.506-6.168 0 0 5.326 2.091 5.744 4.495 0 0 .835-2.927 3.655-4.495 0 0 4.49.418 4.908 4.495 0 0 .418-7.423 2.924-9.096 0 0 5.326 4.078 5.744 7.423 0 0 .417-5.332 2.924-7.84 0 0 4.073 2.09 4.908 6.168" stroke="#C5D1D3" stroke-miterlimit="10" stroke-linejoin="bevel"/><path d="M317.739 101.739V73.766c0-5.301-4.696-10.114-9.913-10.114h-9.913" stroke="#C5D1D3" stroke-miterlimit="10" stroke-linejoin="bevel"/><path d="M297.913 63.652S278.4 60 271.722 60c-5.113 0-6.679 2.65-6.679 4.771 0 2.12 1.566 5.301 7.096 5.301 4.904 0 25.774-6.42 25.774-6.42z" stroke="#C5D1D3" stroke-miterlimit="10" stroke-linejoin="bevel"/><path d="M499.826 27.13l8.348 9.392M493.043 36v-9.391m-44.347.521l8.348 9.392M441.913 36v-9.391m-51.652.521l8.348 9.392M383.478 36v-9.391" stroke="#C5D1D3" stroke-miterlimit="10"/><path d="M455.866 150.985s-5.429-5.025-5.95-7.119c0 0 5.428-1.257 8.977-1.257 3.445 0 10.231.314 17.956 2.618 5.533 1.57 22.445 10.469 25.159 12.773l-7.412 22.614-16.181-.837 4.802-21.882s-9.917-5.025-12.318-5.549c-2.401-.523-13.258-1.78-15.033-1.361zm51.467 10.47l2.818-2.932-2.192-2.303s-1.767.927-2.394 1.345l-1.364 4.832s5.428 10.47 3.653 16.228l9.292 1.571s.313-1.676 0-8.167c-.209-5.13-3.341-9.318-9.813-10.574z" fill="#203A48"/><path d="M511.717 143.656s-1.461 7.853-3.236 10.784c-1.357 2.303-3.236 4.816-8.456 2.827" stroke="#203A48" stroke-miterlimit="10" stroke-linecap="round"/><path d="M501.089 148.891c-.105.524.209.942.731 1.047.522.105.94-.209 1.044-.733l-1.775-.314zm6.264 1.047c-.105.524.208.943.731 1.047.522.105.939-.209 1.044-.733l-1.775-.314z" fill="#203A48"/><path d="M504.827 149.938s.836 1.466.209 2.094c-.522.733-1.88.419-1.88.419" stroke="#203A48" stroke-miterlimit="10"/><path d="M494.716 150.361s-.313-3.978.627-4.083c.939-.105 1.357-.209 1.67 2.931l1.357.105s.627-3.141 1.149-3.769c.626-.837 1.67-1.466 4.071-1.152 2.297.21 5.115 1.047 6.681 1.257 2.61.314 1.879-1.885 1.879-2.932 0-1.57-.313-3.35-4.175-4.606-3.863-1.257-4.176-1.676-7.204-1.78-2.296-.105-5.219 1.78-6.159 5.653-1.047 2.537-1.569 5.667-1.569 6.711 0 3.13 1.673 1.665 1.673 1.665z" fill="#203A48"/><path d="M500.13 135.509c-1.984.524-5.626 3.366-6.043 6.926 0 0 5.417 2.811 6.878 3.335 0 0 2.297 4.816 4.072 5.339 1.148.419 6.263.838 9.186 1.047.835.105 1.462-.837.94-1.57l-2.923-4.607s1.879-5.758-1.357-8.062c-1.462-1.151-7.517-3.35-10.753-2.408z" fill="#D64541"/><path d="M492.521 153.913v-5.217l12.522 5.217-1.26 6.076-11.262-6.076z" fill="#203A48"/><path d="M484.053 209.618l-4.489-16.333c-1.88-6.805 4.175-13.192 11.065-11.726l17.539 2.827-2.297 7.852c-1.357 4.502-5.742 4.293-10.648 4.293h-1.879l4.071 17.903c0 .418-.418.837-.835.837h-3.236a.825.825 0 01-.836-.837v-.629l-3.131 1.047c-.94.315-1.879.419-2.819.419h-8.769c-.94 0-1.775-.837-1.775-1.78v-.418c0-.943.835-1.78 1.775-1.78h4.593c.835 0 1.566-.733 1.671-1.675z" fill="#7B8F9E"/><path d="M513.7 209.618l4.489-16.333c1.879-6.805-4.175-13.192-11.066-11.726l-17.538 3.874 3.967 11.098H504.2l-3.862 17.903c0 .418.417.837.835.837h3.236c.522 0 .835-.419.835-.837v-.629l3.132 1.047c.94.315 1.879.419 2.819.419h8.769c.94 0 1.775-.837 1.775-1.78v-.418c0-.943-.835-1.78-1.775-1.78h-4.593c-.836 0-1.671-.733-1.671-1.675z" fill="#7B8F9E"/><path d="M515.997 190.77l-22.236-3.35 1.566-10.261 22.236 3.351c1.67.209 2.923 1.884 2.61 3.559l-.626 4.083a3.019 3.019 0 01-3.55 2.618z" fill="#fff" stroke="#203A48" stroke-miterlimit="10" stroke-linejoin="round"/><path d="M516.98 179.253s-2.714 1.989-2.296 2.932c.417.942 4.384-1.257 4.384-1.257s-.939-1.57-2.088-1.675zm3.271 3.141s-2.923 1.047-3.236 1.361c-.522.419-.418 1.466 1.044 1.257 0 0-1.88 1.256-.209 1.675 0 0-1.357 1.256.313 1.361 0 0-1.357 1.256-.104 1.361 1.357.105 1.983-.733 2.192-2.199.104-1.047 1.044-4.292 0-4.816z" fill="#fff" stroke="#203A48" stroke-miterlimit="10" stroke-linejoin="round"/><path d="M238.956 214.435c11.526 0 20.87-9.344 20.87-20.87 0-11.526-9.344-20.869-20.87-20.869-11.525 0-20.869 9.343-20.869 20.869s9.344 20.87 20.869 20.87z" fill="#7B8F9E"/><path d="M382.866 196.113c-8.039-20.521 11.901-29.42 25.472-29.42 20.775 0 31.632 21.777 31.632 21.777l-6.682 7.643h-50.422z" fill="#203A48"/><path d="M408 215.478c11.526 0 20.87-9.343 20.87-20.869s-9.344-20.87-20.87-20.87c-11.526 0-20.869 9.344-20.869 20.87 0 11.526 9.343 20.869 20.869 20.869z" fill="#7B8F9E"/><path d="M436.136 152.032c-10.649-1.361-59.923-9.004-59.923-9.004l-26.829-23.033c-4.176-2.408-13.049-3.56-17.852-3.56h-51.779c-11.066 0-22.863 3.874-31.214 10.156-12.319 9.318-22.027 17.589-22.027 17.589l-36.225 3.664c-2.506.209-4.385 2.303-4.385 4.816v13.401l-3.236 4.188v6.491l8.291 19.956h44.869c0-.628-.336-1.843 28.163-2.576.94 0-.104 1.885-.104 2.827h118.696c-.104-.942-.104-1.885-.104-2.827 0-14.029 11.379-25.441 25.368-25.441 13.989 0 25.368 11.412 25.368 25.441 0 .942-.105 1.885-.105 2.827h23.071l1.566-3.56c.731-1.675.314-3.559-.939-4.711l-.835-.733s.417-2.303 1.879-5.549c1.357-3.246 5.115-4.188 5.115-4.188v-7.852c-.104-12.773-16.181-16.961-26.829-18.322z" fill="#F2F6F9"/><path d="M259.304 196.696c-6.89-22.405 11.801-28.959 25.268-28.959 20.774 0 31.631 21.777 31.631 21.777l-6.29 7.182h-50.609z" fill="#203A48"/><path d="M284.869 215.478c11.526 0 20.87-9.343 20.87-20.869s-9.344-20.87-20.87-20.87c-11.526 0-20.869 9.344-20.869 20.87 0 11.526 9.343 20.869 20.869 20.869z" fill="#7B8F9E"/><path d="M284.869 207.131c6.916 0 12.522-5.607 12.522-12.522 0-6.916-5.606-12.522-12.522-12.522-6.915 0-12.521 5.606-12.521 12.522 0 6.915 5.606 12.522 12.521 12.522z" stroke="#C5D1D3" stroke-miterlimit="10"/><path d="M284.869 198.783a4.174 4.174 0 100-8.349 4.174 4.174 0 000 8.349z" fill="#C5D1D3"/><path d="M428.347 196.696c-6.89-22.405 11.71-28.959 25.177-28.959 20.774 0 31.632 21.777 31.632 21.777l-6.2 7.182h-50.609z" fill="#203A48"/><path d="M453.822 215.478c11.526 0 20.87-9.343 20.87-20.869s-9.344-20.87-20.87-20.87c-11.526 0-20.87 9.344-20.87 20.87 0 11.526 9.344 20.869 20.87 20.869z" fill="#7B8F9E"/><path d="M453.822 207.131c6.916 0 12.522-5.607 12.522-12.522 0-6.916-5.606-12.522-12.522-12.522s-12.522 5.606-12.522 12.522c0 6.915 5.606 12.522 12.522 12.522z" stroke="#C5D1D3" stroke-miterlimit="10"/><path d="M453.822 198.783a4.174 4.174 0 100-8.349 4.174 4.174 0 000 8.349z" fill="#C5D1D3"/><path d="M482.069 152.032c-10.648-1.361-59.922-9.004-59.922-9.004l-30.692-21.882c-5.742-3.873-14.407-4.711-19.209-4.711h-46.56c-11.066 0-22.862 3.874-31.214 10.156-12.318 9.318-22.027 17.589-22.027 17.589l-36.225 3.664c-2.505.209-4.384 2.303-4.384 4.816v13.401l-3.237 4.188v6.491l7.227 19.956h23.361v-2.576c0-14.029 11.379-25.441 25.368-25.441 13.989 0 25.368 11.412 25.368 25.441v2.576h118.425c-.105-.943.062-1.634.062-2.576 0-14.029 11.379-25.441 25.368-25.441 13.989 0 25.368 11.412 25.368 25.441 0 .942-.104 1.885-.104 2.827h23.071l1.566-3.56c.73-1.675.313-3.559-.94-4.711l-.835-.733s.418-2.303 1.879-5.549c1.357-3.246 5.115-4.188 5.115-4.188v-7.852c-.104-12.773-16.181-16.961-26.829-18.322z" fill="#C5D1D3"/><path d="M236.87 164.348c1.252 0 3.422-1.113 4.257-2.16l5.428-6.806c.731-.942-.189-2.512-1.338-2.512h-16.695c-3.445 0-8.033 3.626-12.522 11.478h20.87z" fill="#fff"/><path d="M354.783 147.652l-2.087-28.174s-14.668.098-20.201.098c-5.533 0-14.406.838-22.132 7.434-4.802 4.083-11.692 10.574-16.181 14.971-1.774 1.675-.626 4.712 1.879 4.816l58.722.855zM360 119.478l6.261 28.174 47.221 2.286c2.506.105 3.55-3.455 1.462-5.025-8.978-6.806-23.489-17.903-26.621-20.416-4.698-3.769-11.379-4.816-16.39-4.816-4.906-.105-11.933-.203-11.933-.203z" fill="#7B8F9E"/><path d="M305.503 158.498h-7.876c-1.313 0-2.323-1.11-2.323-2.553 0-1.444 1.01-2.554 2.323-2.554h7.876c1.313 0 2.323 1.11 2.323 2.554 0 1.332-1.01 2.553-2.323 2.553z" stroke="#203A48" stroke-miterlimit="10"/><path d="M305.907 158.087h-8.583c-1.111 0-2.02-.696-2.02-1.546V156h12.522v.541c0 .85-.808 1.546-1.919 1.546z" fill="#203A48"/><path d="M414.984 144.764l-5.606-4.355c-1.02-.847-2.141-1.21-3.364-1.21h-2.447c-2.242 0-4.077 2.178-4.077 4.839v1.573c0 2.661 1.733 4.717 3.975 4.838l9.888.242c2.752.121 3.874-4.113 1.631-5.927z" fill="#C5D1D3"/><path d="M310.027 125.858l2.506 21.672" stroke="#C5D1D3" stroke-miterlimit="10"/><path d="M355.961 119.576s6.577 30.781 8.456 42.193c2.61 15.495-.314 29.524-.314 29.524" stroke="#7B8F9E" stroke-miterlimit="10"/><path d="M421.831 144.808s8.664 13.192 1.879 47.323H312.634c0-19.055-19-24.813-19-24.813l-7.099-15.809c-1.252-3.455-.208-7.329 2.819-9.633 0 0 16.912-17.275 24.011-20.206m-7.514 53.395l126.004 1.257m-168.284-1.99l-34.763-1.361h-36.747m286.041 2.094h30.692" stroke="#7B8F9E" stroke-miterlimit="10"/><path d="M504.201 182.394h-8.352a2.098 2.098 0 00-2.088 2.094v1.361c0 1.152.94 2.094 2.088 2.094h6.473l1.879-5.549z" fill="#203A48"/><path d="M220.139 186.261h-24.885c-.413 0-.826-.313-.929-.626l-2.272-6.261c-.206-.73.207-1.461.929-1.461h24.885c.413 0 .826.313.93.626l2.375 6.261c.206.731-.31 1.461-1.033 1.461z" fill="#fff"/><path d="M188.303 152.241h-2.401l-.163 12.107H216l8.111-10.432h7.934v-.942c0-2.722 1.983-4.921 4.697-5.235l22.041-2.174-25.59 1.127c-2.819.105-5.115 2.094-5.846 4.816l-.209.629h-6.055l-2.818 4.397c-1.149 1.78-3.132 2.931-5.22 2.931h-27.247l2.505-7.224z" fill="#203A48"/><path d="M303.652 119.478h-30.261c-6.681 0-12.82 2.192-18.144 6.171l-19.94 14.657c-.835.628-.525 2.129.519 2.129h30.261c1.879 0 3.775-.872 5.132-1.919l23.071-17.589c2.715-2.199 6.198-3.546 9.362-3.449z" fill="#7B8F9E"/><path d="M379.59 159.019h-7.876c-1.313 0-2.323-1.11-2.323-2.553 0-1.443 1.01-2.553 2.323-2.553h7.876c1.313 0 2.323 1.11 2.323 2.553 0 1.332-1.01 2.553-2.323 2.553z" stroke="#203A48" stroke-miterlimit="10"/><path d="M379.994 158.609h-8.583c-1.111 0-2.02-.696-2.02-1.546v-.541h12.522v.541c0 .85-.808 1.546-1.919 1.546z" fill="#203A48"/><path d="M130.051 118.703c-.209-.523-.731-.523-.731-.523s1.566-.943.731-1.78c-.417-.314-1.148-.105-1.148-.105s1.566-1.047.731-1.884c-.418-.419-3.967 1.151-5.533 2.094l-2.715-1.466s-1.461.942-3.027 2.198c-1.67 1.361-3.549 3.455-3.549 3.455l2.401 6.387s2.505-.209 4.697-1.047c2.088-.838 5.22-2.722 6.577-3.979 1.357-1.151 1.357-1.779 1.149-2.198-.209.105.626-.628.417-1.152z" fill="#fff" stroke="#203A48" stroke-miterlimit="10" stroke-linejoin="round"/><path d="M119.299 122.313s2.609-1.152 2.818-3.979c0-.314 1.462-1.989 2.506-2.408 1.879-.733 2.401-2.827.208-2.617-4.802.523-10.021 7.119-10.021 7.119" fill="#fff"/><path d="M119.299 122.313s2.609-1.152 2.818-3.979c0-.314 1.462-1.989 2.506-2.408 1.879-.733 2.401-2.827.208-2.617-4.802.523-10.021 7.119-10.021 7.119" stroke="#203A48" stroke-miterlimit="10"/><path d="M117.616 127.403s.522-2.408-2.714-8.376c0 0-13.78 5.968-24.324-1.152-1.983-1.361-5.742-2.931-9.5 1.361-3.445 3.874-1.252 6.178 1.566 9.423 3.236 3.665 17.538 9.213 34.972-1.256z" fill="#96281B"/><path d="M94.348 209.197l-3.027-61.248-14.093-2.199v7.015l3.758 61.248c0 .418.417.837.835.837h3.236c.522 0 .835-.419.835-.837v-.629l3.132 1.047c.94.314 1.88.419 2.819.419h8.769c.939 0 1.775-.837 1.775-1.78v-.418c0-.943-.836-1.78-1.775-1.78h-4.593c-.836 0-1.566-.733-1.67-1.675z" fill="#7B8F9E"/><path d="M69.795 211.919c-1.357 0-1.879-1.361-1.461-2.722a2154.17 2154.17 0 017.62-26.907c2.506-8.481 4.49-25.861 4.176-27.745v-6.491l-12.945-1.257s-2.088 24.604-4.906 34.446c-1.566 5.444-6.682 25.546-7.934 28.582-.209.419 0 .837.313 1.151l2.61 1.571a.995.995 0 001.253-.314l.417-.733 3.758 2.722c.731.524 1.67.838 2.61.838h6.473c.835 0 1.566-.733 1.566-1.571 0-.837-.731-1.57-1.566-1.57h-1.984z" fill="#7B8F9E"/><path d="M79.733 113.294c4.698 0 7.099 1.047 9.813 3.874 3.027 3.141 2.505 7.329 2.61 9.946.313 5.026-.852 21.582-.852 21.582s-10.527 2.184-24.516-2.004c0 0 1.67-19.264 1.984-22.405.417-3.036 2.087-10.993 10.961-10.993z" fill="#D64541"/><path d="M92.005 95.496s.522 2.827.626 5.968c1.253.732 2.401 1.884 0 3.036-.104 1.047-.208 1.989-.417 2.827-1.044 4.397-6.681 3.14-6.681 3.14l-1.044 4.712s-.731 2.094-4.176 2.094c-3.132 0-4.28-2.094-4.28-2.094l1.044-6.805c-2.924-4.816-1.67-10.26-1.67-10.26l16.598-2.618z" fill="#fff" stroke="#203A48" stroke-miterlimit="10"/><path d="M77.547 110.677H78.8c1.566 0 2.192-.419 2.923-1.675.522-.943.835-3.874.522-5.445-.418-2.198.104-3.14 1.252-3.245 1.566-.105 1.88 3.036 1.88 3.036l1.566-.105s-.21-4.292 1.148-5.548c1.148-1.047 5.22 1.046 6.994-3.979.627-1.675-.626-3.455-2.296-3.455h-5.22c-6.264 0-12.736.523-13.363 8.062-.835 7.328 3.341 12.354 3.341 12.354z" fill="#203A48"/><path d="M90.486 101.568c0-.523-.418-.837-.94-.837s-.835.419-.835.942l1.775-.105z" fill="#203A48"/><path d="M91.844 107.325s0 .314-2.089-.313" stroke="#203A48" stroke-miterlimit="10" stroke-linecap="round"/><path d="M78.272 169.412l3.862-13.192-2.714 29.106-1.148-15.914zM93.2 142.714h-4.49a2.097 2.097 0 01-2.087-2.094v-10.574c0-1.152.94-2.094 2.088-2.094H93.2c1.148 0 2.087.942 2.087 2.094v10.574a2.096 2.096 0 01-2.087 2.094z" fill="#203A48"/><path d="M82.447 126.905l2.61 1.466m.522-4.607l1.566 2.513m1.67-3.56l-.104 2.932" stroke="#203A48" stroke-miterlimit="10" stroke-linecap="round"/><path d="M79.315 139.403s1.88-2.932 5.533-4.188c2.715-.942 2.61-1.361 4.594-1.989.835-.21 2.4.418 1.044 2.094-1.775 2.094-3.863 2.722-3.863 2.722s1.253.628 4.385.209c2.505-.314 3.027.209 3.131.524.105.314.21.732-.521 1.256 0 0 1.043.209 1.043.838 0 .628-1.043 1.256-1.043 1.256s.939.105.835.942c-.105.838-1.149 1.257-1.149 1.257s.522.942-1.148 1.361c-3.34.837-12.945-.733-12.945-.733l-4.071-.314.417-5.759 3.758.524z" fill="#fff" stroke="#203A48" stroke-miterlimit="10" stroke-linejoin="round"/><path d="M79.289 137.689l-10.648-1.78s6.89-6.491 8.56-11.726c.522-1.78-2.07-9.922-2.07-9.922-1.253.209-1.983.394-3.653 1.127-2.297.942-4.716 3.455-7.013 7.434-3.34 5.863-8.247 13.505-8.56 14.657-.314 1.152-1.775 3.979 1.461 6.073 3.236 2.094 21.818 1.884 21.818 1.884l.105-7.747z" fill="#D64541"/><path d="M70.755 136.118l-5.01-.733s3.235-2.408 9.081-6.386l-4.07 7.119z" fill="#96281B"/><path d="M243.13 214.957l-5.999-11.165c-1.474-2.736-4.316-4.488-7.368-4.488h-33.787c-3.052 0-5.894 1.752-7.368 4.488l-5.999 11.165" fill="#F2F6F9"/><path d="M253.565 214.957l-5.896-11.165c-1.448-2.736-4.241-4.488-7.241-4.488h-33.204c-3 0-5.793 1.752-7.241 4.488l-5.896 11.165" fill="#C5D1D3"/><path d="M218.087 202.957h-4.174v4.173h4.174v-4.173zm4.174 4.173h-4.174v4.174h4.174v-4.174zm4.174-4.173h-4.174v4.173h4.174v-4.173zm8.347 0h-4.174v4.173h4.174v-4.173zm-4.174 4.173h-4.173v4.174h4.173v-4.174z" fill="#7B8F9E"/><path d="M145.939 109.002l-.835 4.921c-.105.523.209 1.047.731 1.151l1.461.419-.209 1.675c0 .419.209.838.627.838.417 0 .73-.21.835-.628l1.461-7.853c.105-.628-.313-1.151-.939-1.256l-2.297-.209c-.209 0-.731.418-.835.942z" fill="#203A48"/><path d="M148.049 109.254l-1.879-1.047c-.522-.314-1.148-.105-1.461.419l-1.566 2.827c-.313.523-.105 1.151.417 1.361l1.671 1.047c.522.314 1.148.104 1.461-.314l1.566-2.408.209-.314c.313-.524.104-1.257-.418-1.571z" fill="#7B8F9E"/><path d="M147.694 109.106a2.613 2.613 0 002.609-2.617 2.613 2.613 0 00-2.609-2.617 2.613 2.613 0 00-2.61 2.617 2.613 2.613 0 002.61 2.617z" stroke="#203A48" stroke-miterlimit="10" stroke-linecap="round"/><path d="M144.772 112.248l-2.82 4.502" stroke="#7B8F9E" stroke-miterlimit="10" stroke-linecap="round"/><path d="M148.062 103.872h-2.401c-1.775 0-2.297 2.512-.522 2.512h3.549" fill="#fff"/><path d="M148.062 103.872h-2.401c-1.775 0-2.297 2.512-.522 2.512h3.549" stroke="#203A48" stroke-miterlimit="10"/><path d="M165.688 109.145s-1.044-3.978-2.296-5.235c-2.402-2.303-5.638-2.722-7.621-3.141-1.566-.314-1.357 1.361 1.044 2.304 1.148.418 3.236 1.361 2.505 1.361h-7.516c-.209 0-.313-.105-.418-.105-.626-.419-2.192-1.57-2.818-1.047-.627.733-.627 2.303 1.774 4.188 2.088 1.57 6.055 1.885 7.83 1.989.417 0 .835.21 1.148.524l.94 1.047" fill="#fff"/><path d="M165.688 109.145s-1.044-3.978-2.296-5.235c-2.402-2.303-5.638-2.722-7.621-3.141-1.566-.314-1.357 1.361 1.044 2.304 1.148.418 3.236 1.361 2.505 1.361h-7.516c-.209 0-.313-.105-.418-.105-.626-.419-2.192-1.57-2.818-1.047-.627.733-.627 2.303 1.774 4.188 2.088 1.57 6.055 1.885 7.83 1.989.417 0 .835.21 1.148.524l.94 1.047" stroke="#203A48" stroke-miterlimit="10"/><path d="M150.734 105.704s-1.253-2.198.522-1.779c.939.314 1.357 2.617 1.357 2.617s-.835-2.513.835-1.675c.94.419.626 2.094 1.983 3.036" fill="#fff"/><path d="M150.734 105.704s-1.253-2.198.522-1.779c.939.314 1.357 2.617 1.357 2.617s-.835-2.513.835-1.675c.94.419.626 2.094 1.983 3.036" stroke="#203A48" stroke-miterlimit="10" stroke-linecap="round" stroke-linejoin="round"/><path d="M167.111 108.063s-5.846-.209-8.456 2.513c0 0 1.671 12.145 6.473 17.17 5.741 6.073 20.461 0 24.532-3.559 4.072-3.56 6.89-9.947.836-10.889-1.044-.209-5.429.105-7.308.838-3.654 1.361-7.516 4.083-9.604 4.92-.94.419-1.984.105-2.297-.837l-4.176-10.156z" fill="#203A48"/><path d="M163.562 209.825l17.434-63.97 14.093-2.199v7.015l-18.165 63.97c0 .418-.417.837-.835.837h-3.236c-.522 0-.835-.419-.835-.837v-.628l-3.132 1.046c-.94.315-1.879.419-2.819.419h-8.769c-.939 0-1.775-.837-1.775-1.78v-.418c0-.943.836-1.78 1.775-1.78h4.593c.836 0 1.566-.733 1.671-1.675z" fill="#D64541"/><path d="M183.027 193.806l-2.923-10.47c-.94-3.455-.731-7.119.731-10.469l8.455-19.788-1.774 24.499-4.489 16.228z" fill="#203A48"/><path d="M191.621 204.694c1.357-.209 1.566-1.675.939-2.931-.835-1.675-6.681-15.705-9.186-21.777-.731-1.78-.94-3.874-.418-5.758l6.368-23.766 16.494-3.665.731 5.34c.313 2.303 0 4.711-.835 6.91l-7.308 17.798c-.522 1.152-.626 2.408-.104 3.56 1.983 4.921 7.308 18.322 8.038 19.264.209.419.209.838-.104 1.152l-2.297 1.989c-.417.314-.939.314-1.252-.105l-.522-.628-3.132 3.455c-.627.733-1.462 1.152-2.401 1.361l-6.368 1.152c-.836.209-1.671-.419-1.88-1.257-.208-.837.418-1.675 1.253-1.884l1.984-.21z" fill="#D64541"/><path d="M216.803 153.141c.522 1.152 1.566 1.885 2.714 2.408 1.566.733 3.237 1.361 5.324 1.78 2.401.524 3.341.838 3.967.628.94-.314.418-1.989-1.879-2.827-.522-.209-1.357-.104-1.879-.418-.417-.21-.313-.733.105-.838l2.505-.314c1.357-.209 5.324.419 5.742.419 1.044 0 1.879-.943.835-1.675 0 0 1.461.209.835-.943-.418-.837-1.253-.942-1.253-.942s.627-.314.105-1.152c-.418-.628-1.044-.523-1.044-.523s.939-.881 0-1.613c-.94-.733-7.489-2.087-11.692.252-2.193.733-6.16 1.57-6.16 1.57l1.775 4.188z" fill="#fff" stroke="#203A48" stroke-miterlimit="10" stroke-linejoin="round"/><path d="M234.261 152.348s-5.321-1.148-6.783-1.043m6.341-.833s-5.088-1.359-6.341-1.254m5.218-.522s-3.13-.939-5.218-1.044" stroke="#203A48" stroke-miterlimit="10" stroke-linecap="round" stroke-linejoin="round"/><path d="M195.652 113.739c-4.697 0 .69.602-4.843.602-5.638 0-8.561 8.167-8.874 13.611-.209 5.025-1.357 18.531-1.357 18.531s8.874 5.968 24.846 1.675c0 0 .141-25.125.141-27.114 0-3.037-1.039-7.305-9.913-7.305z" fill="#203A48"/><path d="M202.67 115.388c2.714.524 8.247 4.188 9.813 7.224 1.565 3.036 5.324 13.087 5.324 13.087l6.89 11.726s1.357 3.037-2.297 4.921c-3.654 1.885-5.846.524-5.846.524s-12.736-19.893-14.198-24.709c-2.192-6.596.314-12.773.314-12.773z" fill="#203A48"/><path d="M204.693 103.872c-1.357 5.758-3.967 5.863-3.967 5.863l-.521 5.863s-1.984 1.884-5.742 1.884c-2.506 0-4.489-2.094-4.489-2.094l.835-5.13" fill="#fff"/><path d="M204.693 103.872c-1.357 5.758-3.967 5.863-3.967 5.863l-.521 5.863s-1.984 1.884-5.742 1.884c-2.506 0-4.489-2.094-4.489-2.094l.835-5.13" stroke="#203A48" stroke-miterlimit="10"/><path d="M189.983 95.496s-1.462 7.852-.94 11.202c.418 2.618 1.253 5.654 6.89 5.654" fill="#fff"/><path d="M189.983 95.496s-1.462 7.852-.94 11.202c.418 2.618 1.253 5.654 6.89 5.654" stroke="#203A48" stroke-miterlimit="10" stroke-linecap="round"/><path d="M196.237 103.577c.105-.523.522-.837 1.045-.732.522.104.835.523.731 1.046l-1.776-.314z" fill="#203A48"/><path d="M193.052 103.872s-1.253 1.047-.94 1.884c.313.838 1.566 1.047 1.566 1.047" fill="#fff"/><path d="M193.052 103.872s-1.253 1.047-.94 1.884c.313.838 1.566 1.047 1.566 1.047" stroke="#203A48" stroke-miterlimit="10"/><path d="M203.098 107.481s1.775-3.56.836-4.083c-.836-.524-1.253-.733-2.61 2.094l-1.253-.419s.313-3.141.313-3.978c0-1.257-.209-2.408-2.61-2.618-2.818-.21-4.802-.419-6.263-.837-4.385-1.466-5.324-5.34-4.28-5.026 2.192.733 3.445-2.094 7.516-2.303 7.516-.524 8.143 3.245 8.143 3.245 2.192.733 3.967 2.2 3.445 6.073-.313 2.303-1.149 5.235-1.462 6.072-1.253 2.827-1.775 1.78-1.775 1.78zm-13.124-4.95c.104-.524.522-.838 1.044-.733.522.104.836.523.731 1.047l-1.775-.314z" fill="#203A48"/><path d="M200.238 104.87s-6.159 3.294-11.274-.998c0 0-.731 7.852 4.697 9.213 4.28 1.047 6.055-2.094 6.577-3.874.522-1.78 1.154-4.341 1.154-4.341h-1.154z" fill="#203A48"/><path d="M194.568 108.687s-1.253.314-2.506-.627" stroke="#fff" stroke-miterlimit="10" stroke-linecap="round"/><path d="M456.852 149.442c-.208 1.256-1.043 2.199-2.087 3.036-1.358 1.152-2.819 1.989-4.698 2.932-2.192 1.047-3.028 1.57-3.758 1.57-.94-.105-.836-1.884 1.148-3.245.522-.315 1.253-.419 1.67-.838.313-.314.105-.838-.313-.733l-2.505.209c-1.358.105-5.116 1.571-5.533 1.676-1.044.209-1.984-.524-1.253-1.466 0 0-1.357.523-1.044-.733.209-.838 1.044-1.256 1.044-1.256s-.626-.105-.313-1.047c.209-.733.939-.838.939-.838s-.486-.145-.208-.838c.752-1.879 6.785-3.455 11.274-3.14 2.297.209 6.368.104 6.368.104l-.731 4.607z" fill="#fff" stroke="#203A48" stroke-miterlimit="10" stroke-linejoin="round"/><path d="M439.128 152.788s4.594-1.884 6.055-2.094m-5.707-.127s3.758-1.466 5.011-1.675m-4.315-.288s2.189-1.044 4.172-1.567" stroke="#203A48" stroke-miterlimit="10" stroke-linecap="round" stroke-linejoin="round"/><path d="M469.124 150.148c-2.297-.524-10.439.418-12.214.837 0 0-5.429-5.025-5.951-7.119 0 0 5.429-1.257 8.978-1.257 3.445 0 10.15.348 17.976 2.957l-8.789 4.582z" fill="#203A48"/><path fill-rule="evenodd" clip-rule="evenodd" d="M1.043 215.478c0-.288.234-.521.522-.521h525.912a.52.52 0 110 1.043H1.565a.522.522 0 01-.522-.522z" fill="#203A48"/></g><defs><clipPath id="clip0"><path fill="#fff" d="M0 0h528v216H0z"/></clipPath></defs></svg>