<svg width="45" height="36" viewBox="0 0 45 36" xmlns="http://www.w3.org/2000/svg"><title>Mastercard-logo</title><g fill-rule="nonzero" fill="none"><path d="M43.865 34.719v.09h.083a.088.088 0 0 0 .046-.011.04.04 0 0 0 .017-.035.038.038 0 0 0-.017-.033.08.08 0 0 0-.046-.011h-.083zm.084-.064c.043 0 .076.01.1.03.024.019.035.045.035.078a.09.09 0 0 1-.028.07.137.137 0 0 1-.08.033l.111.128h-.086l-.103-.127h-.033v.127h-.072v-.339h.156zm-.022.456a.288.288 0 0 0 .26-.174.29.29 0 0 0-.06-.312.281.281 0 0 0-.2-.082.286.286 0 0 0-.203.082.275.275 0 0 0-.06.09.274.274 0 0 0-.022.11c0 .04.007.077.022.112a.267.267 0 0 0 .152.15.278.278 0 0 0 .111.024zm0-.65a.365.365 0 0 1 .263.107.358.358 0 0 1 .079.4.377.377 0 0 1-.197.193.37.37 0 0 1-.518-.336.358.358 0 0 1 .227-.336.37.37 0 0 1 .146-.028zm-34.23-1.303c0-.644.423-1.174 1.114-1.174.66 0 1.105.507 1.105 1.174 0 .668-.445 1.175-1.105 1.175-.69 0-1.113-.53-1.113-1.175zm2.971 0v-1.834h-.798v.445c-.253-.33-.637-.537-1.158-.537-1.03 0-1.836.806-1.836 1.926 0 1.121.807 1.927 1.836 1.927.521 0 .905-.207 1.158-.538v.446h.798v-1.835zm26.958 0c0-.644.422-1.174 1.113-1.174.66 0 1.105.507 1.105 1.174 0 .668-.445 1.175-1.105 1.175-.69 0-1.113-.53-1.113-1.175zm2.971 0v-3.307h-.799v1.918c-.253-.33-.637-.537-1.158-.537-1.03 0-1.836.806-1.836 1.926 0 1.121.807 1.927 1.836 1.927.521 0 .905-.207 1.158-.538v.446h.799v-1.835zM22.57 31.946c.514 0 .845.322.929.89h-1.904c.085-.53.407-.89.975-.89zm.016-.714c-1.075 0-1.827.782-1.827 1.926 0 1.167.783 1.927 1.88 1.927.553 0 1.06-.138 1.505-.514l-.391-.591c-.308.245-.7.384-1.068.384-.514 0-.982-.238-1.097-.899h2.725c.007-.1.015-.2.015-.307-.008-1.144-.714-1.926-1.742-1.926zm9.633 1.926c0-.644.422-1.174 1.113-1.174.66 0 1.105.507 1.105 1.174 0 .668-.445 1.175-1.105 1.175-.69 0-1.113-.53-1.113-1.175zm2.97 0v-1.834h-.798v.445c-.254-.33-.637-.537-1.159-.537-1.028 0-1.835.806-1.835 1.926 0 1.121.807 1.927 1.835 1.927.522 0 .905-.207 1.16-.538v.446h.797v-1.835zm-7.476 0c0 1.113.775 1.927 1.958 1.927.552 0 .92-.123 1.32-.437l-.384-.645c-.3.215-.614.33-.96.33-.637-.008-1.105-.468-1.105-1.175 0-.706.468-1.166 1.105-1.174.346 0 .66.115.96.33l.383-.645c-.398-.314-.767-.437-1.32-.437-1.182 0-1.957.813-1.957 1.926zM38 31.232c-.46 0-.76.215-.968.537v-.445h-.79v3.669h.798v-2.057c0-.607.261-.944.783-.944.162 0 .33.022.499.092l.246-.752c-.177-.07-.407-.1-.568-.1zm-21.385.384c-.384-.253-.913-.384-1.496-.384-.93 0-1.528.445-1.528 1.174 0 .599.445.968 1.266 1.083l.377.053c.437.062.644.177.644.384 0 .284-.292.446-.837.446-.552 0-.951-.177-1.22-.384l-.376.62c.437.323.99.477 1.588.477 1.06 0 1.674-.499 1.674-1.197 0-.645-.483-.983-1.282-1.098l-.376-.054c-.345-.046-.622-.114-.622-.36 0-.27.261-.43.699-.43.468 0 .921.177 1.143.314l.346-.644zm10.293-.384c-.46 0-.76.215-.967.537v-.445h-.79v3.669h.797v-2.057c0-.607.261-.944.783-.944.162 0 .33.022.5.092l.245-.752c-.176-.07-.406-.1-.568-.1zm-6.808.092h-1.305V30.21h-.806v1.113h-.744v.73h.744v1.673c0 .851.33 1.358 1.274 1.358.346 0 .745-.107.998-.284l-.23-.683a1.477 1.477 0 0 1-.707.207c-.399 0-.529-.246-.529-.614v-1.658H20.1v-.73zM8.171 34.993V32.69c0-.867-.553-1.45-1.444-1.458-.468-.008-.951.138-1.29.652-.252-.406-.651-.652-1.212-.652-.392 0-.775.115-1.074.544v-.452h-.799v3.669h.806v-2.034c0-.637.353-.975.899-.975.53 0 .797.345.797.967v2.042h.807v-2.034c0-.637.368-.975.898-.975.544 0 .805.345.805.967v2.042h.807z" fill="#231F20"/><path d="M44.32 22.789v-.536h-.14l-.162.368-.16-.368h-.14v.536h.098v-.404l.151.348h.103l.151-.35v.406h.099zm-.887 0v-.445h.18v-.09h-.457v.09h.179v.445h.098z" fill="#F79410"/><path fill="#FF5F00" d="M28.44 25.09H16.35V3.36h12.09z"/><path d="M17.116 14.226c0-4.408 2.064-8.334 5.278-10.864a13.758 13.758 0 0 0-8.54-2.955C6.224.407.037 6.594.037 14.227c0 7.631 6.186 13.818 13.817 13.818 3.224 0 6.19-1.105 8.54-2.955a13.795 13.795 0 0 1-5.278-10.864" fill="#EB001B"/><path d="M44.751 14.226c0 7.632-6.186 13.819-13.817 13.819-3.223 0-6.19-1.105-8.54-2.955a13.794 13.794 0 0 0 5.278-10.864c0-4.408-2.064-8.334-5.278-10.864a13.762 13.762 0 0 1 8.54-2.955c7.631 0 13.817 6.187 13.817 13.82" fill="#F79E1B"/></g></svg>