<svg width="36" height="30" viewBox="0 0 36 30" xmlns="http://www.w3.org/2000/svg" xmlns:xlink="http://www.w3.org/1999/xlink"><title>Group 3</title><defs><path d="M7.856 5.694l-4.512.75A4 4 0 0 0 0 10.39V26a4 4 0 0 0 4 4h28a4 4 0 0 0 4-4V10.387a4 4 0 0 0-3.34-3.945l-5.133-.858-1.539-3.728A3 3 0 0 0 23.215 0h-11.26A3 3 0 0 0 9.12 2.024l-1.263 3.67z" id="a"/></defs><g fill="none" fill-rule="evenodd"><use fill-opacity="0" fill="#D8D8D8" xlink:href="#a"/><path stroke="#FF5E31" stroke-width="2" d="M10.064 2.35L8.608 6.583l-5.1.848A3 3 0 0 0 1 10.39V26a3 3 0 0 0 3 3h28a3 3 0 0 0 3-3V10.387a3 3 0 0 0-2.505-2.96l-5.681-.949-1.75-4.241A2 2 0 0 0 23.214 1H11.957a2 2 0 0 0-1.892 1.35z"/><circle stroke="#FF5E31" stroke-width="2" fill="none" cx="18" cy="17" r="8"/><path d="M18 13a4 4 0 0 0-4 4" stroke="#FF5E31" stroke-width="2" fill="none" stroke-linecap="round"/></g></svg>