<svg width="54" height="18" viewBox="0 0 54 18" xmlns="http://www.w3.org/2000/svg"><title>visa</title><g fill="none" fill-rule="evenodd"><path fill="#005C9C" d="M23.579 16.911H19.25L21.956.288h4.328L23.58 16.91M15.61.288L11.484 11.72l-.488-2.462v.001L9.54 1.785S9.364.288 7.487.288H.666l-.08.281s2.087.434 4.527 1.9l3.76 14.442h4.51L20.267.288H15.61M49.651 16.911h3.974L50.16.288h-3.48c-1.606 0-1.997 1.238-1.997 1.238l-6.454 15.385h4.51l.903-2.469h5.502l.507 2.47zm-4.762-5.88l2.274-6.221 1.28 6.22h-3.554zM38.567 4.285l.617-3.57S37.278-.01 35.292-.01c-2.148 0-7.248.94-7.248 5.503 0 4.295 5.986 4.349 5.986 6.604s-5.37 1.852-7.14.429l-.645 3.732s1.933.94 4.886.94c2.953 0 7.409-1.53 7.409-5.692 0-4.322-6.04-4.725-6.04-6.603 0-1.88 4.215-1.638 6.067-.618"/><path d="M10.996 9.26L9.54 1.785S9.364.288 7.487.288H.666l-.08.281s3.279.68 6.424 3.225c3.006 2.433 3.986 5.466 3.986 5.466" fill="#EE9F3F"/></g></svg>